<svg width="30" height="30" viewBox="0 0 30 30" fill="none" xmlns="http://www.w3.org/2000/svg">
<path d="M27.5068 29.8947H2.28261C1.02401 29.8947 0 28.8707 0 27.6121V2.38793C0 1.12933 1.02401 0.105316 2.28261 0.105316H27.5068C28.7654 0.105316 29.7894 1.12933 29.7894 2.38793V27.6121C29.7894 28.8707 28.7654 29.8947 27.5068 29.8947ZM2.28261 1.29689C1.67938 1.29689 1.19158 1.78469 1.19158 2.38793V27.6121C1.19158 28.2153 1.6831 28.7031 2.28261 28.7031H27.5068C28.11 28.7031 28.5978 28.2153 28.5978 27.6121V2.38793C28.5978 1.78469 28.1063 1.29689 27.5068 1.29689H2.28261Z" fill="#265196"/>
<path d="M14.85 26.2828C8.78037 26.2828 3.84277 21.3452 3.84277 15.2756C3.84277 9.206 8.78037 4.2684 14.85 4.2684C20.9195 4.2684 25.8571 9.206 25.8571 15.2756C25.8571 21.3452 20.9195 26.2828 14.85 26.2828ZM14.85 5.20304C9.29423 5.20304 4.77369 9.72359 4.77369 15.2793C4.77369 20.835 9.29423 25.3556 14.85 25.3556C20.4057 25.3556 24.9262 20.835 24.9262 15.2793C24.9262 9.72359 20.4057 5.20304 14.85 5.20304Z" fill="#265196"/>
<path d="M6.0583 20.3696L5.1311 20.2877C5.29495 18.4892 6.11043 13.9425 10.1655 10.5317C15.2744 6.23454 21.3812 7.27717 22.5542 7.53038L22.3568 8.43896C21.2583 8.20064 15.5388 7.22877 10.765 11.2429C6.97432 14.4304 6.21097 18.6865 6.0583 20.3696Z" fill="#265196"/>
<path d="M25.0788 15.6256C23.5819 14.2776 19.471 11.146 13.6323 11.146H13.5764C9.67027 11.1609 6.61313 12.5499 4.7364 13.7116L4.24487 12.9222C6.22214 11.6971 9.44685 10.23 13.5727 10.2188C19.7689 10.1928 24.1181 13.5106 25.7007 14.9367L25.0788 15.6293V15.6256Z" fill="#265196"/>
<path d="M10.7018 25.3854C7.61488 20.7606 7.3654 14.974 10.0725 10.6397C12.5972 6.59948 16.7379 5.30364 18.4024 4.935L18.6034 5.84357C17.0544 6.18615 13.1967 7.39262 10.8619 11.1349C8.34845 15.1565 8.59048 20.5484 11.4763 24.8678L10.7018 25.3854Z" fill="#265196"/>
</svg>
