<svg width="17" height="16" viewBox="0 0 17 16" fill="none" xmlns="http://www.w3.org/2000/svg">
<g id="eye-slash-outline">
<g id="vector">
<path d="M3.16667 10.3913L4.11533 9.442C3.70491 9.03947 3.38472 8.55431 3.176 8.01867C3.41733 7.372 5.66333 4.66667 8.5 4.66667C8.62333 4.66667 8.74067 4.68667 8.86067 4.69667L10.0173 3.54C9.5225 3.40639 9.01254 3.33693 8.5 3.33334C4.908 3.33334 1.83333 6.89067 1.83333 8C2.0072 8.92043 2.47508 9.75957 3.16667 10.3913Z" fill="#111928"/>
<path fill-rule="evenodd" clip-rule="evenodd" d="M2.79634 13.8876C2.90595 13.9609 3.03481 14 3.16665 14C3.34344 14 3.51298 13.9297 3.63798 13.8047L7.14556 10.2971C7.55513 10.5386 8.02272 10.6667 8.5 10.6667C9.20724 10.6667 9.88552 10.3857 10.3856 9.88562C10.8857 9.38553 11.1667 8.70725 11.1667 8C11.1667 7.52272 11.0386 7.05513 10.7971 6.64556L14.3046 3.13801C14.3683 3.07651 14.4191 3.00294 14.454 2.92161C14.489 2.84027 14.5074 2.75279 14.5081 2.66427C14.5089 2.57575 14.492 2.48797 14.4585 2.40604C14.425 2.32411 14.3755 2.24967 14.3129 2.18708C14.2503 2.12448 14.1759 2.07498 14.0939 2.04146C14.012 2.00794 13.9242 1.99107 13.8357 1.99184C13.7472 1.99261 13.6597 2.011 13.5784 2.04594C13.497 2.08088 13.4235 2.13167 13.362 2.19534L9.85442 5.7029C9.74755 5.63989 9.63601 5.58418 9.52049 5.53632C9.03322 5.33449 8.49704 5.28168 7.97976 5.38458C7.46248 5.48747 6.98732 5.74145 6.61438 6.11439C6.24144 6.48733 5.98747 6.96248 5.88457 7.47976C5.78168 7.99705 5.83449 8.53322 6.03632 9.02049C6.08417 9.13602 6.13989 9.24756 6.2029 9.35442L2.69531 12.862C2.60211 12.9552 2.53863 13.074 2.51292 13.2033C2.48721 13.3326 2.50041 13.4666 2.55086 13.5884C2.60131 13.7102 2.68673 13.8144 2.79634 13.8876ZM8.15478 9.28787C8.18286 9.2954 8.21124 9.30202 8.23988 9.30772C8.49852 9.35917 8.76661 9.33276 9.01025 9.23184C9.25388 9.13093 9.46212 8.96003 9.60863 8.74076C9.75514 8.5215 9.83333 8.26371 9.83333 8C9.83333 7.88241 9.8178 7.76643 9.78787 7.65478L8.15478 9.28787ZM8.84519 6.71213L7.21212 8.34519C7.2046 8.31712 7.19798 8.28875 7.19229 8.26012C7.14084 8.00148 7.16724 7.73339 7.26816 7.48976C7.36908 7.24613 7.53997 7.03789 7.75924 6.89138C7.97851 6.74487 8.23629 6.66667 8.5 6.66667C8.61758 6.66667 8.73356 6.6822 8.84519 6.71213Z" fill="#111928"/>
<path d="M13.714 5.72867L12.7667 6.67334C13.1919 7.05984 13.5485 7.51563 13.8213 8.02134C13.3466 9.02651 12.5922 9.87353 11.6484 10.4609C10.7046 11.0483 9.6115 11.3512 8.5 11.3333C8.37133 11.3333 8.248 11.3253 8.12467 11.3187L6.94333 12.4993C7.45492 12.6095 7.97668 12.6656 8.5 12.6667C12.802 12.6667 15.1667 9.16134 15.1667 8C15.1667 7.22267 14.0753 6.084 13.714 5.72867Z" fill="#111928"/>
</g>
</g>
</svg>
