<svg xmlns="http://www.w3.org/2000/svg" width="207" height="40" viewBox="0 0 207 40" fill="none">
    <path d="M36.935 40H3.065C1.375 40 0 38.625 0 36.935V3.065C0 1.375 1.375 0 3.065 0H36.935C38.625 0 40 1.375 40 3.065V36.935C40 38.625 38.625 40 36.935 40ZM3.065 1.6C2.255 1.6 1.6 2.255 1.6 3.065V36.935C1.6 37.745 2.26 38.4 3.065 38.4H36.935C37.745 38.4 38.4 37.745 38.4 36.935V3.065C38.4 2.255 37.74 1.6 36.935 1.6H3.065Z" fill="#265196"/>
    <path d="M55.5551 30.1451H53.3201L62.3701 9.7301H64.3701L73.4451 30.1451H71.1851L68.6601 24.5501H58.0151L55.5501 30.1451H55.5551ZM63.3551 12.4251L58.7451 22.6601H67.9651L63.3551 12.4251Z" fill="#265196"/>
    <path d="M79.8848 30.1451H77.7398V9.84506H86.2648C88.2748 9.84506 89.8598 10.3551 91.0198 11.3801C92.1798 12.4051 92.7598 13.7701 92.7598 15.4701C92.7598 17.1701 92.1798 18.5951 91.0198 19.6301C89.8598 20.6651 88.2748 21.1801 86.2648 21.1801H79.8848V30.1401V30.1451ZM79.8848 11.7901V19.2451H86.1198C87.5498 19.2451 88.6598 18.9201 89.4548 18.2751C90.2448 17.6301 90.6448 16.7151 90.6448 15.5351C90.6448 14.3551 90.2548 13.4151 89.4698 12.7651C88.6848 12.1201 87.5698 11.7951 86.1198 11.7951H79.8848V11.7901Z" fill="#265196"/>
    <path d="M99.3999 30.1451H97.5999V9.84506H99.7149V26.5501L112.33 9.84506H114.215V30.1451H112.1V13.3851L99.3999 30.1451Z" fill="#265196"/>
    <path d="M120.745 30.1451H118.51L127.56 9.7301H129.56L138.635 30.1451H136.375L133.85 24.5501H123.205L120.74 30.1451H120.745ZM128.545 12.4251L123.935 22.6601H133.155L128.545 12.4251Z" fill="#265196"/>
    <path d="M142.55 34.6701H140.55V28.2051H142.465C143.72 26.4451 144.62 24.3851 145.16 22.0301C145.72 19.6351 146 16.3851 146 12.2851V9.85007H158.53V28.2051H161.605V34.6701H159.605V30.1451H142.555V34.6701H142.55ZM144.87 28.2001H156.385V11.7901H148.12V13.1551C148.12 20.0751 147.035 25.0951 144.87 28.2051V28.2001Z" fill="#265196"/>
    <path d="M168.16 30.1451H166.015V9.84506H168.16V18.2851H180.225V9.84506H182.37V30.1451H180.225V20.2251H168.16V30.1451Z" fill="#265196"/>
    <path d="M188.895 30.1451H186.66L195.71 9.7301H197.71L206.785 30.1451H204.525L202 24.5501H191.355L188.89 30.1451H188.895ZM196.695 12.4251L192.085 22.6601H201.305L196.695 12.4251Z" fill="#265196"/>
    <path d="M19.9399 35.1501C11.7899 35.1501 5.15991 28.5201 5.15991 20.3701C5.15991 12.2201 11.7899 5.59006 19.9399 5.59006C28.0899 5.59006 34.7199 12.2201 34.7199 20.3701C34.7199 28.5201 28.0899 35.1501 19.9399 35.1501ZM19.9399 6.84506C12.4799 6.84506 6.40991 12.9151 6.40991 20.3751C6.40991 27.8351 12.4799 33.9051 19.9399 33.9051C27.3999 33.9051 33.4699 27.8351 33.4699 20.3751C33.4699 12.9151 27.3999 6.84506 19.9399 6.84506Z" fill="#265196"/>
    <path d="M8.13488 27.2101L6.88988 27.1001C7.10988 24.6851 8.20488 18.5801 13.6499 14.0001C20.5099 8.23012 28.7099 9.63012 30.2849 9.97012L30.0199 11.1901C28.5449 10.8701 20.8649 9.56512 14.4549 14.9551C9.36488 19.2351 8.33988 24.9501 8.13488 27.2101Z" fill="#265196"/>
    <path d="M33.6749 20.8401C31.6649 19.0301 26.1449 14.8251 18.3049 14.8251H18.2299C12.9849 14.8451 8.87994 16.7101 6.35994 18.2701L5.69994 17.2101C8.35494 15.5651 12.6849 13.5951 18.2249 13.5801C26.5449 13.5451 32.3849 18.0001 34.5099 19.9151L33.6749 20.8451V20.8401Z" fill="#265196"/>
    <path d="M14.3699 33.9451C10.2249 27.7351 9.88994 19.9651 13.5249 14.1451C16.9149 8.72014 22.4749 6.98014 24.7099 6.48514L24.9799 7.70514C22.8999 8.16514 17.7199 9.78514 14.5849 14.8101C11.2099 20.2101 11.5349 27.4501 15.4099 33.2501L14.3699 33.9451Z" fill="#265196"/>
</svg>