<svg width="102" height="36" viewBox="0 0 102 36" fill="none" xmlns="http://www.w3.org/2000/svg">
<g clip-path="url(#clip0_4211_4166)">
<g clip-path="url(#clip1_4211_4166)">
<path d="M35.3823 6.24258V2.55128C35.3823 1.23903 34.3089 0.170898 32.9894 0.170898H2.45502C1.13545 0.170898 0.0621652 1.23859 0.0621652 2.55128L0.0612793 33.2191C0.0612793 33.8549 0.310665 34.4533 0.762039 34.9023C1.2143 35.3522 1.81539 35.5999 2.45413 35.5999H5.90743C5.90964 35.5999 5.91186 35.6003 5.91408 35.6003H11.3576H16.8131H32.9907C34.3103 35.6003 35.3836 34.5321 35.3836 33.2199V17.0741V11.667V6.26021C35.384 6.25404 35.3823 6.24831 35.3823 6.24258ZM6.8651 34.2329L6.8558 18.7662C6.8558 18.207 7.31248 17.7527 7.87415 17.7527L10.9195 17.754V34.2435L6.8651 34.2329ZM12.294 34.2435V17.754L16.3387 17.7576V34.2329L12.294 34.2435ZM12.294 16.3911L12.2886 13.3626C12.2886 12.8038 12.7453 12.3495 13.307 12.3495L16.3387 12.3504V16.3898L12.294 16.3911ZM17.7127 12.3509H34.0078V16.3903H17.7127V12.3509ZM34.0078 10.9835H17.7127V7.95718C17.7127 7.39839 18.1698 6.94409 18.7315 6.94409H34.0078V10.9835ZM1.73433 33.9359C1.54164 33.7443 1.43578 33.4901 1.43578 33.2191L1.43666 2.55128C1.43666 1.99254 1.89335 1.53823 2.45502 1.53823H32.9894C33.5511 1.53823 34.0082 1.99254 34.0082 2.55128V5.57632H18.7315C17.4119 5.57632 16.3387 6.64401 16.3387 7.95669V10.983L13.307 10.9822C11.9875 10.9822 10.9142 12.0504 10.9142 13.3626L10.9199 16.4012L7.87463 16.3991C6.55504 16.3991 5.48175 17.4672 5.48175 18.7799L5.49061 34.2329H2.45413C2.18216 34.2329 1.92657 34.1272 1.73433 33.9359ZM32.9907 34.2334H23.4858C23.4831 34.2334 23.4813 34.2329 23.4787 34.2329H17.7127V17.7576H34.0078V31.6851C34.0078 31.6913 34.0091 31.6966 34.0095 31.7023V33.2195C34.0095 33.7791 33.5528 34.2334 32.9907 34.2334Z" fill="#2C5598"/>
</g>
<path d="M50.5855 16.2373C49.7726 17.0671 48.2695 17.5854 46.7663 17.5854C43.1392 17.5854 40.6343 15.1313 40.6343 11.3655C40.6343 7.892 42.8793 5.14636 46.663 5.14636C48.2178 5.14636 49.4795 5.57907 50.3425 6.32015L49.6685 7.42613C48.8741 6.83924 47.9409 6.52916 46.68 6.52916C44.0539 6.52916 42.1883 8.4981 42.1883 11.3655C42.1883 14.2499 44.1056 16.2026 46.9044 16.2026C48.062 16.2026 49.168 15.8046 49.997 15.1306L50.5855 16.2373Z" fill="#2C5598"/>
<path d="M57.7906 5.14636H59.1357L64.6827 17.5854H63.0061L61.3469 13.8394H55.4684L53.828 17.5854H52.2437L57.7906 5.14636ZM56.0961 12.4251H60.7398L58.4192 7.14199L56.0961 12.4251Z" fill="#2C5598"/>
<path d="M65.5122 5.14636H75.4634V6.56779H71.2234V17.5854H69.753V6.56779H65.5122V5.14636Z" fill="#2C5598"/>
<path d="M78.7805 5.14636H85.2501V6.56779H80.1734V10.5841H84.7588V12.0057H80.1734V16.1638H85.4147V17.5854H78.7813L78.7805 5.14636Z" fill="#2C5598"/>
<path d="M97.1452 6.56408H92.5503L92.3339 8.90363C91.5919 16.791 89.8923 17.8005 87.9021 17.5529L87.9198 16.0465C88.8242 16.1351 90.3437 15.6928 90.9226 7.62752L91.1034 5.14636H98.6826V17.5529H97.1452V6.56408Z" fill="#2C5598"/>
</g>
<defs>
<clipPath id="clip0_4211_4166">
<rect width="102" height="35.6585" fill="white" transform="translate(0 0.170898)"/>
</clipPath>
<clipPath id="clip1_4211_4166">
<rect width="35.4344" height="46.8455" fill="white" transform="translate(0 0.170898)"/>
</clipPath>
</defs>
</svg>
